# xmcd
#
# Track frame offsets: 
#        150
#        12961
#        25486
#        36308
#        48930
#        65758
#        81782
#        93944
#        105707
#        116922
#        128839
#        136991
#        148846
#        157307
#        173453
#        185965
#        196316
#        214400
#        221516
#
# Disc length: 3063 seconds
#
# Revision: 10
# Processed by: cddbd v1.5.2PL0 Copyright (c) Steve Scherf et al.
# Submitted via: ExactAudioCopyFreeDBPlugin 1.0
#
DISCID=240bf513
DTITLE=Johnny Cash - I Walk The Line
DYEAR=1999
DGENRE=Country
TTITLE0=I Walk the Line
TTITLE1=Ring of Fire
TTITLE2=Rock Island Line
TTITLE3=Peace in the Valley
TTITLE4=Sunday Morning Come Down
TTITLE5=A Boy Named Sue
TTITLE6=Folsom Prison Blues
TTITLE7=Highwayman
TTITLE8=Big River
TTITLE9=Sixteen Tons
TTITLE10=The Wall
TTITLE11=I Still Miss Someone
TTITLE12=I Got Stripes
TTITLE13=City of New Orleans
TTITLE14=Jackson (With June Carter Cash)
TTITLE15=If I Were A Carpenter (With June Carter Cash)
TTITLE16=Orange Blossom Special
TTITLE17=Casey Jones
TTITLE18=Get Rhythm
EXTD=YEAR: 2004
EXTT0=
EXTT1=
EXTT2=
EXTT3=
EXTT4=
EXTT5=
EXTT6=
EXTT7=
EXTT8=
EXTT9=
EXTT10=
EXTT11=
EXTT12=
EXTT13=
EXTT14=
EXTT15=
EXTT16=
EXTT17=
EXTT18=
PLAYORDER=
